<svg xmlns="http://www.w3.org/2000/svg" width="512.001" height="511.999" viewBox="0 0 512.001 511.999">
  <path id="pint" d="M256,0C114.614,0,0,114.618,0,256,0,364.455,67.475,457.17,162.707,494.47c-2.24-20.255-4.261-51.4.889-73.518,4.65-19.978,30.018-127.248,30.018-127.248s-7.659-15.334-7.659-38.008c0-35.6,20.632-62.171,46.323-62.171,21.839,0,32.391,16.4,32.391,36.061,0,21.966-13.984,54.8-21.2,85.235-6.03,25.482,12.779,46.261,37.909,46.261,45.5,0,80.477-47.976,80.477-117.229,0-61.293-44.045-104.149-106.932-104.149-72.841,0-115.6,54.634-115.6,111.1,0,22,8.475,45.6,19.052,58.421a7.66,7.66,0,0,1,1.776,7.343c-1.945,8.087-6.262,25.474-7.111,29.032-1.117,4.686-3.711,5.681-8.561,3.424-31.974-14.884-51.963-61.627-51.963-99.174,0-80.755,58.672-154.915,169.148-154.915,88.806,0,157.821,63.279,157.821,147.85,0,88.229-55.629,159.232-132.842,159.232-25.94,0-50.328-13.476-58.674-29.394,0,0-12.838,48.878-15.95,60.856-5.782,22.237-21.382,50.109-31.818,67.11A255.865,255.865,0,0,0,256,512c141.389,0,256-114.612,256-256S397.387,0,256,0Z" transform="translate(0 -0.001)" fill="#fff"/>
</svg>
